<svg width="1150" height="35" viewBox="0 0 1150 35" fill="none" xmlns="http://www.w3.org/2000/svg">
<path d="M1168.8 0.554382C1153.15 0.554382 1153.15 14.7379 1137.61 14.7379C1122.07 14.7379 1121.96 0.554382 1106.41 0.554382C1090.87 0.554382 1090.76 14.7379 1075.22 14.7379C1059.57 14.7379 1059.57 0.554382 1043.91 0.554382C1028.26 0.554382 1028.26 14.7379 1012.72 14.7379C997.065 14.7379 997.065 0.554382 981.522 0.554382C965.87 0.554382 965.87 14.7379 950.326 14.7379C934.783 14.7379 934.348 0.554382 918.804 0.554382C903.152 0.554382 903.152 14.7379 887.609 14.7379C872.065 14.7379 871.848 0.554382 856.304 0.554382C840.652 0.554382 840.652 14.7379 825.109 14.7379C809.456 14.7379 809.456 0.554382 793.804 0.554382C778.152 0.554382 778.152 14.7379 762.609 14.7379C746.956 14.7379 746.957 0.554382 731.413 0.554382C715.87 0.554382 715.652 14.7379 700 14.7379C684.348 14.7379 684.348 0.554382 668.804 0.554382C653.152 0.554382 653.152 14.7379 637.609 14.7379C621.956 14.7379 621.956 0.554382 606.304 0.554382C590.652 0.554382 590.652 14.7379 575.109 14.7379C559.456 14.7379 559.457 0.554382 543.913 0.554382C528.261 0.554382 528.261 14.7379 512.717 14.7379C497.065 14.7379 497.065 0.554382 481.522 0.554382C465.87 0.554382 465.87 14.7379 450.217 14.7379C434.565 14.7379 434.565 0.554382 418.913 0.554382C403.261 0.554382 403.261 14.7379 387.609 14.7379C371.957 14.7379 371.957 0.554382 356.304 0.554382C340.652 0.554382 340.652 14.7379 325 14.7379C309.348 14.7379 309.348 0.554382 293.696 0.554382C278.043 0.554382 278.043 14.7379 262.391 14.7379C246.739 14.7379 246.739 0.554382 231.087 0.554382C215.435 0.554382 215.435 14.7379 199.891 14.7379C184.239 14.7379 184.239 0.554382 168.587 0.554382C152.935 0.554382 152.935 14.7379 137.283 14.7379C121.63 14.7379 121.63 0.554382 105.978 0.554382C90.3261 0.554382 90.3261 14.7379 74.6739 14.7379C59.0217 14.7379 59.0217 0.554382 43.3696 0.554382C28.1522 0.554382 28.1522 14.7379 12.5 14.7379C-3.15218 14.7379 -3.15218 0.554382 -18.6957 0.554382C-34.2391 0.554382 -34.3478 14.7379 -50 14.7379V35H1200V14.7379C1184.35 14.7379 1184.35 0.554382 1168.8 0.554382Z" fill="white"/>
</svg>
